<mxfile host="Electron" agent="Mozilla/5.0 (Windows NT 10.0; Win64; x64) AppleWebKit/537.36 (KHTML, like Gecko) draw.io/24.7.5 Chrome/126.0.6478.183 Electron/31.3.0 Safari/537.36" version="24.7.5">
  <diagram name="第 1 页" id="2A8hfoUkHPLYK8lWaR0H">
    <mxGraphModel dx="943" dy="705" grid="1" gridSize="10" guides="1" tooltips="1" connect="1" arrows="1" fold="1" page="1" pageScale="1" pageWidth="827" pageHeight="1169" math="0" shadow="0">
      <root>
        <mxCell id="0" />
        <mxCell id="1" parent="0" />
        <mxCell id="3sjhn8kAWHoQyI4SQKc3-1" value="" style="ellipse;whiteSpace=wrap;html=1;aspect=fixed;fillColor=#f8cecc;strokeColor=#b85450;" parent="1" vertex="1">
          <mxGeometry x="300" y="230" width="50" height="50" as="geometry" />
        </mxCell>
        <mxCell id="3sjhn8kAWHoQyI4SQKc3-6" style="rounded=0;orthogonalLoop=1;jettySize=auto;html=1;exitX=0;exitY=0;exitDx=0;exitDy=0;entryX=1;entryY=1;entryDx=0;entryDy=0;endArrow=none;endFill=0;" parent="1" source="3sjhn8kAWHoQyI4SQKc3-2" target="3sjhn8kAWHoQyI4SQKc3-1" edge="1">
          <mxGeometry relative="1" as="geometry" />
        </mxCell>
        <mxCell id="3sjhn8kAWHoQyI4SQKc3-2" value="" style="ellipse;whiteSpace=wrap;html=1;aspect=fixed;fillColor=#dae8fc;strokeColor=#6c8ebf;" parent="1" vertex="1">
          <mxGeometry x="364" y="320" width="50" height="50" as="geometry" />
        </mxCell>
        <mxCell id="3sjhn8kAWHoQyI4SQKc3-5" style="edgeStyle=orthogonalEdgeStyle;rounded=0;orthogonalLoop=1;jettySize=auto;html=1;exitX=1;exitY=0.5;exitDx=0;exitDy=0;entryX=0;entryY=0.5;entryDx=0;entryDy=0;endArrow=none;endFill=0;" parent="1" source="3sjhn8kAWHoQyI4SQKc3-4" target="3sjhn8kAWHoQyI4SQKc3-2" edge="1">
          <mxGeometry relative="1" as="geometry" />
        </mxCell>
        <mxCell id="3sjhn8kAWHoQyI4SQKc3-7" style="rounded=0;orthogonalLoop=1;jettySize=auto;html=1;exitX=1;exitY=0;exitDx=0;exitDy=0;entryX=0;entryY=1;entryDx=0;entryDy=0;endArrow=none;endFill=0;" parent="1" source="3sjhn8kAWHoQyI4SQKc3-4" target="3sjhn8kAWHoQyI4SQKc3-1" edge="1">
          <mxGeometry relative="1" as="geometry" />
        </mxCell>
        <mxCell id="3sjhn8kAWHoQyI4SQKc3-4" value="" style="ellipse;whiteSpace=wrap;html=1;aspect=fixed;fillColor=#dae8fc;strokeColor=#6c8ebf;" parent="1" vertex="1">
          <mxGeometry x="230" y="320" width="50" height="50" as="geometry" />
        </mxCell>
        <mxCell id="3sjhn8kAWHoQyI4SQKc3-9" style="edgeStyle=orthogonalEdgeStyle;rounded=0;orthogonalLoop=1;jettySize=auto;html=1;exitX=0.5;exitY=0;exitDx=0;exitDy=0;entryX=0.5;entryY=1;entryDx=0;entryDy=0;endArrow=none;endFill=0;" parent="1" source="3sjhn8kAWHoQyI4SQKc3-8" target="3sjhn8kAWHoQyI4SQKc3-4" edge="1">
          <mxGeometry relative="1" as="geometry" />
        </mxCell>
        <mxCell id="3sjhn8kAWHoQyI4SQKc3-8" value="" style="ellipse;whiteSpace=wrap;html=1;aspect=fixed;fillColor=#fff2cc;strokeColor=#d6b656;" parent="1" vertex="1">
          <mxGeometry x="230" y="420" width="50" height="50" as="geometry" />
        </mxCell>
        <mxCell id="3sjhn8kAWHoQyI4SQKc3-24" style="rounded=0;orthogonalLoop=1;jettySize=auto;html=1;exitX=1;exitY=0.5;exitDx=0;exitDy=0;entryX=0;entryY=0;entryDx=0;entryDy=0;endArrow=none;endFill=0;" parent="1" source="3sjhn8kAWHoQyI4SQKc3-11" target="3sjhn8kAWHoQyI4SQKc3-22" edge="1">
          <mxGeometry relative="1" as="geometry" />
        </mxCell>
        <mxCell id="3sjhn8kAWHoQyI4SQKc3-28" style="rounded=0;orthogonalLoop=1;jettySize=auto;html=1;exitX=0;exitY=0;exitDx=0;exitDy=0;entryX=1;entryY=1;entryDx=0;entryDy=0;endArrow=none;endFill=0;" parent="1" source="3sjhn8kAWHoQyI4SQKc3-11" target="3sjhn8kAWHoQyI4SQKc3-27" edge="1">
          <mxGeometry relative="1" as="geometry" />
        </mxCell>
        <mxCell id="3sjhn8kAWHoQyI4SQKc3-11" value="&lt;span style=&quot;font-size: 18px;&quot;&gt;3&lt;/span&gt;" style="ellipse;whiteSpace=wrap;html=1;aspect=fixed;fillColor=#f8cecc;strokeColor=#b85450;" parent="1" vertex="1">
          <mxGeometry x="630" y="260" width="50" height="50" as="geometry" />
        </mxCell>
        <mxCell id="3sjhn8kAWHoQyI4SQKc3-14" style="edgeStyle=orthogonalEdgeStyle;rounded=0;orthogonalLoop=1;jettySize=auto;html=1;exitX=1;exitY=0.5;exitDx=0;exitDy=0;entryX=0;entryY=0.5;entryDx=0;entryDy=0;endArrow=none;endFill=0;" parent="1" source="3sjhn8kAWHoQyI4SQKc3-12" target="3sjhn8kAWHoQyI4SQKc3-13" edge="1">
          <mxGeometry relative="1" as="geometry" />
        </mxCell>
        <mxCell id="3sjhn8kAWHoQyI4SQKc3-17" style="rounded=0;orthogonalLoop=1;jettySize=auto;html=1;exitX=1;exitY=0;exitDx=0;exitDy=0;entryX=0;entryY=1;entryDx=0;entryDy=0;endArrow=none;endFill=0;" parent="1" source="3sjhn8kAWHoQyI4SQKc3-12" target="3sjhn8kAWHoQyI4SQKc3-11" edge="1">
          <mxGeometry relative="1" as="geometry" />
        </mxCell>
        <mxCell id="3sjhn8kAWHoQyI4SQKc3-12" value="&lt;span style=&quot;font-size: 18px;&quot;&gt;4&lt;/span&gt;" style="ellipse;whiteSpace=wrap;html=1;aspect=fixed;fillColor=#dae8fc;strokeColor=#6c8ebf;" parent="1" vertex="1">
          <mxGeometry x="570" y="340" width="50" height="50" as="geometry" />
        </mxCell>
        <mxCell id="3sjhn8kAWHoQyI4SQKc3-15" style="rounded=0;orthogonalLoop=1;jettySize=auto;html=1;exitX=0;exitY=0;exitDx=0;exitDy=0;entryX=1;entryY=1;entryDx=0;entryDy=0;endArrow=none;endFill=0;" parent="1" source="3sjhn8kAWHoQyI4SQKc3-13" target="3sjhn8kAWHoQyI4SQKc3-11" edge="1">
          <mxGeometry relative="1" as="geometry" />
        </mxCell>
        <mxCell id="3sjhn8kAWHoQyI4SQKc3-44" style="rounded=0;orthogonalLoop=1;jettySize=auto;html=1;exitX=1;exitY=0.5;exitDx=0;exitDy=0;entryX=0;entryY=1;entryDx=0;entryDy=0;endArrow=none;endFill=0;" parent="1" source="3sjhn8kAWHoQyI4SQKc3-13" target="3sjhn8kAWHoQyI4SQKc3-42" edge="1">
          <mxGeometry relative="1" as="geometry" />
        </mxCell>
        <mxCell id="3sjhn8kAWHoQyI4SQKc3-13" value="&lt;span style=&quot;font-size: 18px;&quot;&gt;5&lt;/span&gt;" style="ellipse;whiteSpace=wrap;html=1;aspect=fixed;fillColor=#dae8fc;strokeColor=#6c8ebf;" parent="1" vertex="1">
          <mxGeometry x="690" y="340" width="50" height="50" as="geometry" />
        </mxCell>
        <mxCell id="3sjhn8kAWHoQyI4SQKc3-19" style="edgeStyle=orthogonalEdgeStyle;rounded=0;orthogonalLoop=1;jettySize=auto;html=1;exitX=0.5;exitY=0;exitDx=0;exitDy=0;entryX=0.5;entryY=1;entryDx=0;entryDy=0;endArrow=none;endFill=0;" parent="1" source="3sjhn8kAWHoQyI4SQKc3-18" target="3sjhn8kAWHoQyI4SQKc3-12" edge="1">
          <mxGeometry relative="1" as="geometry" />
        </mxCell>
        <mxCell id="3sjhn8kAWHoQyI4SQKc3-18" value="&lt;span style=&quot;font-size: 18px;&quot;&gt;7&lt;/span&gt;" style="ellipse;whiteSpace=wrap;html=1;aspect=fixed;fillColor=#fff2cc;strokeColor=#d6b656;" parent="1" vertex="1">
          <mxGeometry x="570" y="450" width="50" height="50" as="geometry" />
        </mxCell>
        <mxCell id="3sjhn8kAWHoQyI4SQKc3-144" style="rounded=0;orthogonalLoop=1;jettySize=auto;html=1;exitX=0;exitY=0;exitDx=0;exitDy=0;entryX=1;entryY=1;entryDx=0;entryDy=0;endArrow=none;endFill=0;" parent="1" source="3sjhn8kAWHoQyI4SQKc3-20" target="3sjhn8kAWHoQyI4SQKc3-22" edge="1">
          <mxGeometry relative="1" as="geometry" />
        </mxCell>
        <mxCell id="3sjhn8kAWHoQyI4SQKc3-145" style="rounded=0;orthogonalLoop=1;jettySize=auto;html=1;exitX=0.5;exitY=0;exitDx=0;exitDy=0;entryX=0.5;entryY=1;entryDx=0;entryDy=0;endArrow=none;endFill=0;" parent="1" source="3sjhn8kAWHoQyI4SQKc3-20" target="3sjhn8kAWHoQyI4SQKc3-42" edge="1">
          <mxGeometry relative="1" as="geometry" />
        </mxCell>
        <mxCell id="3sjhn8kAWHoQyI4SQKc3-20" value="&lt;span style=&quot;font-size: 18px;&quot;&gt;8&lt;/span&gt;" style="ellipse;whiteSpace=wrap;html=1;aspect=fixed;fillColor=#fff2cc;strokeColor=#d6b656;" parent="1" vertex="1">
          <mxGeometry x="890" y="440" width="50" height="50" as="geometry" />
        </mxCell>
        <mxCell id="3sjhn8kAWHoQyI4SQKc3-22" value="&lt;span style=&quot;font-size: 18px;&quot;&gt;6&lt;/span&gt;" style="ellipse;whiteSpace=wrap;html=1;aspect=fixed;fillColor=#dae8fc;strokeColor=#6c8ebf;" parent="1" vertex="1">
          <mxGeometry x="820" y="360" width="50" height="50" as="geometry" />
        </mxCell>
        <mxCell id="3sjhn8kAWHoQyI4SQKc3-25" value="&lt;font style=&quot;font-size: 20px;&quot;&gt;Query Graph&lt;/font&gt;" style="text;html=1;align=center;verticalAlign=middle;whiteSpace=wrap;rounded=0;" parent="1" vertex="1">
          <mxGeometry x="252" y="530" width="146" height="30" as="geometry" />
        </mxCell>
        <mxCell id="3sjhn8kAWHoQyI4SQKc3-26" value="&lt;font style=&quot;font-size: 20px;&quot;&gt;Original Data Graph&lt;/font&gt;" style="text;html=1;align=center;verticalAlign=middle;whiteSpace=wrap;rounded=0;" parent="1" vertex="1">
          <mxGeometry x="600" y="530" width="200" height="30" as="geometry" />
        </mxCell>
        <mxCell id="3sjhn8kAWHoQyI4SQKc3-31" style="rounded=0;orthogonalLoop=1;jettySize=auto;html=1;exitX=1;exitY=0.5;exitDx=0;exitDy=0;entryX=0;entryY=0.5;entryDx=0;entryDy=0;endArrow=none;endFill=0;" parent="1" source="3sjhn8kAWHoQyI4SQKc3-27" target="3sjhn8kAWHoQyI4SQKc3-30" edge="1">
          <mxGeometry relative="1" as="geometry" />
        </mxCell>
        <mxCell id="3sjhn8kAWHoQyI4SQKc3-27" value="&lt;font style=&quot;font-size: 18px;&quot;&gt;1&lt;/font&gt;" style="ellipse;whiteSpace=wrap;html=1;aspect=fixed;fillColor=#fff2cc;strokeColor=#d6b656;" parent="1" vertex="1">
          <mxGeometry x="550" y="190" width="50" height="50" as="geometry" />
        </mxCell>
        <mxCell id="3sjhn8kAWHoQyI4SQKc3-32" style="rounded=0;orthogonalLoop=1;jettySize=auto;html=1;exitX=0;exitY=1;exitDx=0;exitDy=0;entryX=1;entryY=0;entryDx=0;entryDy=0;endArrow=none;endFill=0;" parent="1" source="3sjhn8kAWHoQyI4SQKc3-30" target="3sjhn8kAWHoQyI4SQKc3-13" edge="1">
          <mxGeometry relative="1" as="geometry" />
        </mxCell>
        <mxCell id="3sjhn8kAWHoQyI4SQKc3-43" style="rounded=0;orthogonalLoop=1;jettySize=auto;html=1;exitX=1;exitY=0.5;exitDx=0;exitDy=0;entryX=0;entryY=0.5;entryDx=0;entryDy=0;endArrow=none;endFill=0;" parent="1" source="3sjhn8kAWHoQyI4SQKc3-30" target="3sjhn8kAWHoQyI4SQKc3-42" edge="1">
          <mxGeometry relative="1" as="geometry" />
        </mxCell>
        <mxCell id="3sjhn8kAWHoQyI4SQKc3-30" value="&lt;font style=&quot;font-size: 18px;&quot;&gt;2&lt;/font&gt;" style="ellipse;whiteSpace=wrap;html=1;aspect=fixed;fillColor=#f8cecc;strokeColor=#b85450;" parent="1" vertex="1">
          <mxGeometry x="750" y="220" width="50" height="50" as="geometry" />
        </mxCell>
        <mxCell id="3sjhn8kAWHoQyI4SQKc3-33" value="&lt;font style=&quot;font-size: 20px;&quot;&gt;Result&lt;/font&gt;" style="text;html=1;align=center;verticalAlign=middle;whiteSpace=wrap;rounded=0;" parent="1" vertex="1">
          <mxGeometry x="170" y="710" width="146" height="30" as="geometry" />
        </mxCell>
        <mxCell id="3sjhn8kAWHoQyI4SQKc3-34" value="&lt;span style=&quot;font-size: 18px;&quot;&gt;3&lt;/span&gt;" style="ellipse;whiteSpace=wrap;html=1;aspect=fixed;fillColor=#f8cecc;strokeColor=#b85450;" parent="1" vertex="1">
          <mxGeometry x="366" y="630" width="50" height="50" as="geometry" />
        </mxCell>
        <mxCell id="3sjhn8kAWHoQyI4SQKc3-38" style="edgeStyle=orthogonalEdgeStyle;rounded=0;orthogonalLoop=1;jettySize=auto;html=1;exitX=1;exitY=0.5;exitDx=0;exitDy=0;entryX=0;entryY=0.5;entryDx=0;entryDy=0;endArrow=none;endFill=0;" parent="1" source="3sjhn8kAWHoQyI4SQKc3-35" target="3sjhn8kAWHoQyI4SQKc3-36" edge="1">
          <mxGeometry relative="1" as="geometry" />
        </mxCell>
        <mxCell id="3sjhn8kAWHoQyI4SQKc3-40" style="rounded=0;orthogonalLoop=1;jettySize=auto;html=1;exitX=1;exitY=0;exitDx=0;exitDy=0;entryX=0;entryY=1;entryDx=0;entryDy=0;endArrow=none;endFill=0;" parent="1" source="3sjhn8kAWHoQyI4SQKc3-35" target="3sjhn8kAWHoQyI4SQKc3-34" edge="1">
          <mxGeometry relative="1" as="geometry" />
        </mxCell>
        <mxCell id="3sjhn8kAWHoQyI4SQKc3-41" style="edgeStyle=orthogonalEdgeStyle;rounded=0;orthogonalLoop=1;jettySize=auto;html=1;exitX=0.5;exitY=1;exitDx=0;exitDy=0;endArrow=none;endFill=0;" parent="1" source="3sjhn8kAWHoQyI4SQKc3-35" target="3sjhn8kAWHoQyI4SQKc3-37" edge="1">
          <mxGeometry relative="1" as="geometry" />
        </mxCell>
        <mxCell id="3sjhn8kAWHoQyI4SQKc3-35" value="&lt;span style=&quot;font-size: 18px;&quot;&gt;4&lt;/span&gt;" style="ellipse;whiteSpace=wrap;html=1;aspect=fixed;fillColor=#dae8fc;strokeColor=#6c8ebf;" parent="1" vertex="1">
          <mxGeometry x="306" y="710" width="50" height="50" as="geometry" />
        </mxCell>
        <mxCell id="3sjhn8kAWHoQyI4SQKc3-39" style="rounded=0;orthogonalLoop=1;jettySize=auto;html=1;exitX=0;exitY=0;exitDx=0;exitDy=0;entryX=1;entryY=1;entryDx=0;entryDy=0;endArrow=none;endFill=0;" parent="1" source="3sjhn8kAWHoQyI4SQKc3-36" target="3sjhn8kAWHoQyI4SQKc3-34" edge="1">
          <mxGeometry relative="1" as="geometry" />
        </mxCell>
        <mxCell id="3sjhn8kAWHoQyI4SQKc3-36" value="&lt;span style=&quot;font-size: 18px;&quot;&gt;5&lt;/span&gt;" style="ellipse;whiteSpace=wrap;html=1;aspect=fixed;fillColor=#dae8fc;strokeColor=#6c8ebf;" parent="1" vertex="1">
          <mxGeometry x="426" y="710" width="50" height="50" as="geometry" />
        </mxCell>
        <mxCell id="3sjhn8kAWHoQyI4SQKc3-37" value="&lt;span style=&quot;font-size: 18px;&quot;&gt;7&lt;/span&gt;" style="ellipse;whiteSpace=wrap;html=1;aspect=fixed;fillColor=#fff2cc;strokeColor=#d6b656;" parent="1" vertex="1">
          <mxGeometry x="306" y="820" width="50" height="50" as="geometry" />
        </mxCell>
        <mxCell id="3sjhn8kAWHoQyI4SQKc3-42" value="&lt;span style=&quot;font-size: 18px;&quot;&gt;9&lt;/span&gt;" style="ellipse;whiteSpace=wrap;html=1;aspect=fixed;fillColor=#dae8fc;strokeColor=#6c8ebf;" parent="1" vertex="1">
          <mxGeometry x="910" y="260" width="50" height="50" as="geometry" />
        </mxCell>
        <mxCell id="3sjhn8kAWHoQyI4SQKc3-49" style="edgeStyle=orthogonalEdgeStyle;rounded=0;orthogonalLoop=1;jettySize=auto;html=1;exitX=1;exitY=0.5;exitDx=0;exitDy=0;entryX=0;entryY=0.5;entryDx=0;entryDy=0;endArrow=none;endFill=0;" parent="1" source="3sjhn8kAWHoQyI4SQKc3-45" target="3sjhn8kAWHoQyI4SQKc3-48" edge="1">
          <mxGeometry relative="1" as="geometry" />
        </mxCell>
        <mxCell id="3sjhn8kAWHoQyI4SQKc3-51" style="rounded=0;orthogonalLoop=1;jettySize=auto;html=1;exitX=1;exitY=0;exitDx=0;exitDy=0;entryX=0;entryY=1;entryDx=0;entryDy=0;endArrow=none;endFill=0;" parent="1" source="3sjhn8kAWHoQyI4SQKc3-45" target="3sjhn8kAWHoQyI4SQKc3-47" edge="1">
          <mxGeometry relative="1" as="geometry" />
        </mxCell>
        <mxCell id="3sjhn8kAWHoQyI4SQKc3-52" style="edgeStyle=orthogonalEdgeStyle;rounded=0;orthogonalLoop=1;jettySize=auto;html=1;exitX=0.5;exitY=1;exitDx=0;exitDy=0;entryX=0.5;entryY=0;entryDx=0;entryDy=0;endArrow=none;endFill=0;" parent="1" source="3sjhn8kAWHoQyI4SQKc3-45" target="3sjhn8kAWHoQyI4SQKc3-46" edge="1">
          <mxGeometry relative="1" as="geometry" />
        </mxCell>
        <mxCell id="3sjhn8kAWHoQyI4SQKc3-45" value="&lt;span style=&quot;font-size: 18px;&quot;&gt;9&lt;/span&gt;" style="ellipse;whiteSpace=wrap;html=1;aspect=fixed;fillColor=#dae8fc;strokeColor=#6c8ebf;" parent="1" vertex="1">
          <mxGeometry x="504" y="710" width="50" height="50" as="geometry" />
        </mxCell>
        <mxCell id="3sjhn8kAWHoQyI4SQKc3-46" value="&lt;span style=&quot;font-size: 18px;&quot;&gt;8&lt;/span&gt;" style="ellipse;whiteSpace=wrap;html=1;aspect=fixed;fillColor=#fff2cc;strokeColor=#d6b656;" parent="1" vertex="1">
          <mxGeometry x="504" y="820" width="50" height="50" as="geometry" />
        </mxCell>
        <mxCell id="3sjhn8kAWHoQyI4SQKc3-50" style="rounded=0;orthogonalLoop=1;jettySize=auto;html=1;exitX=1;exitY=1;exitDx=0;exitDy=0;entryX=0;entryY=0;entryDx=0;entryDy=0;endArrow=none;endFill=0;" parent="1" source="3sjhn8kAWHoQyI4SQKc3-47" target="3sjhn8kAWHoQyI4SQKc3-48" edge="1">
          <mxGeometry relative="1" as="geometry" />
        </mxCell>
        <mxCell id="3sjhn8kAWHoQyI4SQKc3-47" value="&lt;font style=&quot;font-size: 18px;&quot;&gt;2&lt;/font&gt;" style="ellipse;whiteSpace=wrap;html=1;aspect=fixed;fillColor=#f8cecc;strokeColor=#b85450;" parent="1" vertex="1">
          <mxGeometry x="564" y="630" width="50" height="50" as="geometry" />
        </mxCell>
        <mxCell id="3sjhn8kAWHoQyI4SQKc3-48" value="&lt;span style=&quot;font-size: 18px;&quot;&gt;5&lt;/span&gt;" style="ellipse;whiteSpace=wrap;html=1;aspect=fixed;fillColor=#dae8fc;strokeColor=#6c8ebf;" parent="1" vertex="1">
          <mxGeometry x="624" y="710" width="50" height="50" as="geometry" />
        </mxCell>
        <mxCell id="3sjhn8kAWHoQyI4SQKc3-53" value="&lt;font style=&quot;font-size: 20px;&quot;&gt;Count:&lt;/font&gt;" style="text;html=1;align=center;verticalAlign=middle;whiteSpace=wrap;rounded=0;" parent="1" vertex="1">
          <mxGeometry x="210" y="943" width="60" height="30" as="geometry" />
        </mxCell>
        <mxCell id="3sjhn8kAWHoQyI4SQKc3-54" value="&lt;span style=&quot;color: rgb(0, 0, 0); font-family: Helvetica; font-size: 20px; font-style: normal; font-variant-ligatures: normal; font-variant-caps: normal; font-weight: 400; letter-spacing: normal; orphans: 2; text-align: center; text-indent: 0px; text-transform: none; widows: 2; word-spacing: 0px; -webkit-text-stroke-width: 0px; white-space: normal; background-color: rgb(251, 251, 251); text-decoration-thickness: initial; text-decoration-style: initial; text-decoration-color: initial; display: inline !important; float: none;&quot;&gt;2&lt;/span&gt;" style="text;whiteSpace=wrap;html=1;" parent="1" vertex="1">
          <mxGeometry x="280" y="940" width="50" height="30" as="geometry" />
        </mxCell>
        <mxCell id="3sjhn8kAWHoQyI4SQKc3-70" value="&lt;font style=&quot;font-size: 20px;&quot;&gt;Original Data Graph&lt;/font&gt;" style="text;html=1;align=center;verticalAlign=middle;whiteSpace=wrap;rounded=0;" parent="1" vertex="1">
          <mxGeometry x="1191" y="530.5" width="200" height="30" as="geometry" />
        </mxCell>
        <mxCell id="3sjhn8kAWHoQyI4SQKc3-78" value="" style="shape=flexArrow;endArrow=classic;html=1;rounded=0;strokeColor=default;" parent="1" edge="1">
          <mxGeometry width="50" height="50" relative="1" as="geometry">
            <mxPoint x="710" y="38" as="sourcePoint" />
            <mxPoint x="710" y="178" as="targetPoint" />
          </mxGeometry>
        </mxCell>
        <mxCell id="3sjhn8kAWHoQyI4SQKc3-79" value="&lt;font style=&quot;font-size: 25px;&quot;&gt;Input Data Graph&lt;/font&gt;" style="text;html=1;align=center;verticalAlign=middle;whiteSpace=wrap;rounded=0;" parent="1" vertex="1">
          <mxGeometry x="610" y="1" width="200" height="30" as="geometry" />
        </mxCell>
        <mxCell id="3sjhn8kAWHoQyI4SQKc3-80" value="" style="shape=flexArrow;endArrow=classic;html=1;rounded=0;strokeColor=default;" parent="1" edge="1">
          <mxGeometry width="50" height="50" relative="1" as="geometry">
            <mxPoint x="1320" y="38" as="sourcePoint" />
            <mxPoint x="1320" y="178" as="targetPoint" />
          </mxGeometry>
        </mxCell>
        <mxCell id="3sjhn8kAWHoQyI4SQKc3-81" value="&lt;font style=&quot;font-size: 25px;&quot;&gt;Add_edge(5,6)&lt;/font&gt;" style="text;html=1;align=center;verticalAlign=middle;whiteSpace=wrap;rounded=0;" parent="1" vertex="1">
          <mxGeometry x="1220" y="1" width="200" height="30" as="geometry" />
        </mxCell>
        <mxCell id="3sjhn8kAWHoQyI4SQKc3-84" value="&lt;font style=&quot;font-size: 20px;&quot;&gt;Result&lt;/font&gt;" style="text;html=1;align=center;verticalAlign=middle;whiteSpace=wrap;rounded=0;" parent="1" vertex="1">
          <mxGeometry x="840" y="710" width="146" height="30" as="geometry" />
        </mxCell>
        <mxCell id="3sjhn8kAWHoQyI4SQKc3-85" value="&lt;span style=&quot;font-size: 18px;&quot;&gt;3&lt;/span&gt;" style="ellipse;whiteSpace=wrap;html=1;aspect=fixed;fillColor=#f8cecc;strokeColor=#b85450;" parent="1" vertex="1">
          <mxGeometry x="1094" y="630" width="50" height="50" as="geometry" />
        </mxCell>
        <mxCell id="3sjhn8kAWHoQyI4SQKc3-86" style="edgeStyle=orthogonalEdgeStyle;rounded=0;orthogonalLoop=1;jettySize=auto;html=1;exitX=1;exitY=0.5;exitDx=0;exitDy=0;entryX=0;entryY=0.5;entryDx=0;entryDy=0;endArrow=none;endFill=0;" parent="1" source="3sjhn8kAWHoQyI4SQKc3-89" target="3sjhn8kAWHoQyI4SQKc3-91" edge="1">
          <mxGeometry relative="1" as="geometry" />
        </mxCell>
        <mxCell id="3sjhn8kAWHoQyI4SQKc3-87" style="rounded=0;orthogonalLoop=1;jettySize=auto;html=1;exitX=1;exitY=0;exitDx=0;exitDy=0;entryX=0;entryY=1;entryDx=0;entryDy=0;endArrow=none;endFill=0;" parent="1" source="3sjhn8kAWHoQyI4SQKc3-89" target="3sjhn8kAWHoQyI4SQKc3-85" edge="1">
          <mxGeometry relative="1" as="geometry" />
        </mxCell>
        <mxCell id="3sjhn8kAWHoQyI4SQKc3-88" style="edgeStyle=orthogonalEdgeStyle;rounded=0;orthogonalLoop=1;jettySize=auto;html=1;exitX=0.5;exitY=1;exitDx=0;exitDy=0;endArrow=none;endFill=0;" parent="1" source="3sjhn8kAWHoQyI4SQKc3-89" target="3sjhn8kAWHoQyI4SQKc3-92" edge="1">
          <mxGeometry relative="1" as="geometry" />
        </mxCell>
        <mxCell id="3sjhn8kAWHoQyI4SQKc3-89" value="&lt;span style=&quot;font-size: 18px;&quot;&gt;4&lt;/span&gt;" style="ellipse;whiteSpace=wrap;html=1;aspect=fixed;fillColor=#dae8fc;strokeColor=#6c8ebf;" parent="1" vertex="1">
          <mxGeometry x="1034" y="710" width="50" height="50" as="geometry" />
        </mxCell>
        <mxCell id="3sjhn8kAWHoQyI4SQKc3-90" style="rounded=0;orthogonalLoop=1;jettySize=auto;html=1;exitX=0;exitY=0;exitDx=0;exitDy=0;entryX=1;entryY=1;entryDx=0;entryDy=0;endArrow=none;endFill=0;" parent="1" source="3sjhn8kAWHoQyI4SQKc3-91" target="3sjhn8kAWHoQyI4SQKc3-85" edge="1">
          <mxGeometry relative="1" as="geometry" />
        </mxCell>
        <mxCell id="3sjhn8kAWHoQyI4SQKc3-91" value="&lt;span style=&quot;font-size: 18px;&quot;&gt;5&lt;/span&gt;" style="ellipse;whiteSpace=wrap;html=1;aspect=fixed;fillColor=#dae8fc;strokeColor=#6c8ebf;" parent="1" vertex="1">
          <mxGeometry x="1154" y="710" width="50" height="50" as="geometry" />
        </mxCell>
        <mxCell id="3sjhn8kAWHoQyI4SQKc3-92" value="&lt;span style=&quot;font-size: 18px;&quot;&gt;7&lt;/span&gt;" style="ellipse;whiteSpace=wrap;html=1;aspect=fixed;fillColor=#fff2cc;strokeColor=#d6b656;" parent="1" vertex="1">
          <mxGeometry x="1034" y="820" width="50" height="50" as="geometry" />
        </mxCell>
        <mxCell id="3sjhn8kAWHoQyI4SQKc3-93" style="edgeStyle=orthogonalEdgeStyle;rounded=0;orthogonalLoop=1;jettySize=auto;html=1;exitX=1;exitY=0.5;exitDx=0;exitDy=0;entryX=0;entryY=0.5;entryDx=0;entryDy=0;endArrow=none;endFill=0;" parent="1" source="3sjhn8kAWHoQyI4SQKc3-96" target="3sjhn8kAWHoQyI4SQKc3-100" edge="1">
          <mxGeometry relative="1" as="geometry" />
        </mxCell>
        <mxCell id="3sjhn8kAWHoQyI4SQKc3-94" style="rounded=0;orthogonalLoop=1;jettySize=auto;html=1;exitX=1;exitY=0;exitDx=0;exitDy=0;entryX=0;entryY=1;entryDx=0;entryDy=0;endArrow=none;endFill=0;" parent="1" source="3sjhn8kAWHoQyI4SQKc3-96" target="3sjhn8kAWHoQyI4SQKc3-99" edge="1">
          <mxGeometry relative="1" as="geometry" />
        </mxCell>
        <mxCell id="3sjhn8kAWHoQyI4SQKc3-95" style="edgeStyle=orthogonalEdgeStyle;rounded=0;orthogonalLoop=1;jettySize=auto;html=1;exitX=0.5;exitY=1;exitDx=0;exitDy=0;entryX=0.5;entryY=0;entryDx=0;entryDy=0;endArrow=none;endFill=0;" parent="1" source="3sjhn8kAWHoQyI4SQKc3-96" target="3sjhn8kAWHoQyI4SQKc3-97" edge="1">
          <mxGeometry relative="1" as="geometry" />
        </mxCell>
        <mxCell id="3sjhn8kAWHoQyI4SQKc3-96" value="&lt;span style=&quot;font-size: 18px;&quot;&gt;9&lt;/span&gt;" style="ellipse;whiteSpace=wrap;html=1;aspect=fixed;fillColor=#dae8fc;strokeColor=#6c8ebf;" parent="1" vertex="1">
          <mxGeometry x="1241" y="710" width="50" height="50" as="geometry" />
        </mxCell>
        <mxCell id="3sjhn8kAWHoQyI4SQKc3-97" value="&lt;span style=&quot;font-size: 18px;&quot;&gt;8&lt;/span&gt;" style="ellipse;whiteSpace=wrap;html=1;aspect=fixed;fillColor=#fff2cc;strokeColor=#d6b656;" parent="1" vertex="1">
          <mxGeometry x="1241" y="820" width="50" height="50" as="geometry" />
        </mxCell>
        <mxCell id="3sjhn8kAWHoQyI4SQKc3-98" style="rounded=0;orthogonalLoop=1;jettySize=auto;html=1;exitX=1;exitY=1;exitDx=0;exitDy=0;entryX=0;entryY=0;entryDx=0;entryDy=0;endArrow=none;endFill=0;" parent="1" source="3sjhn8kAWHoQyI4SQKc3-99" target="3sjhn8kAWHoQyI4SQKc3-100" edge="1">
          <mxGeometry relative="1" as="geometry" />
        </mxCell>
        <mxCell id="3sjhn8kAWHoQyI4SQKc3-99" value="&lt;font style=&quot;font-size: 18px;&quot;&gt;2&lt;/font&gt;" style="ellipse;whiteSpace=wrap;html=1;aspect=fixed;fillColor=#f8cecc;strokeColor=#b85450;" parent="1" vertex="1">
          <mxGeometry x="1301" y="630" width="50" height="50" as="geometry" />
        </mxCell>
        <mxCell id="3sjhn8kAWHoQyI4SQKc3-100" value="&lt;span style=&quot;font-size: 18px;&quot;&gt;5&lt;/span&gt;" style="ellipse;whiteSpace=wrap;html=1;aspect=fixed;fillColor=#dae8fc;strokeColor=#6c8ebf;" parent="1" vertex="1">
          <mxGeometry x="1361" y="710" width="50" height="50" as="geometry" />
        </mxCell>
        <mxCell id="3sjhn8kAWHoQyI4SQKc3-101" value="&lt;font style=&quot;font-size: 20px;&quot;&gt;Count:&lt;/font&gt;" style="text;html=1;align=center;verticalAlign=middle;whiteSpace=wrap;rounded=0;" parent="1" vertex="1">
          <mxGeometry x="880" y="943" width="60" height="30" as="geometry" />
        </mxCell>
        <mxCell id="3sjhn8kAWHoQyI4SQKc3-102" value="&lt;div style=&quot;text-align: center;&quot;&gt;&lt;span style=&quot;background-color: initial; font-size: 20px;&quot;&gt;3&lt;/span&gt;&lt;/div&gt;" style="text;whiteSpace=wrap;html=1;" parent="1" vertex="1">
          <mxGeometry x="950" y="940" width="50" height="30" as="geometry" />
        </mxCell>
        <mxCell id="3sjhn8kAWHoQyI4SQKc3-103" style="edgeStyle=orthogonalEdgeStyle;rounded=0;orthogonalLoop=1;jettySize=auto;html=1;exitX=1;exitY=0.5;exitDx=0;exitDy=0;entryX=0;entryY=0.5;entryDx=0;entryDy=0;endArrow=none;endFill=0;" parent="1" source="3sjhn8kAWHoQyI4SQKc3-106" target="3sjhn8kAWHoQyI4SQKc3-110" edge="1">
          <mxGeometry relative="1" as="geometry" />
        </mxCell>
        <mxCell id="3sjhn8kAWHoQyI4SQKc3-104" style="rounded=0;orthogonalLoop=1;jettySize=auto;html=1;exitX=1;exitY=0;exitDx=0;exitDy=0;entryX=0;entryY=1;entryDx=0;entryDy=0;endArrow=none;endFill=0;" parent="1" source="3sjhn8kAWHoQyI4SQKc3-106" target="3sjhn8kAWHoQyI4SQKc3-109" edge="1">
          <mxGeometry relative="1" as="geometry" />
        </mxCell>
        <mxCell id="3sjhn8kAWHoQyI4SQKc3-105" style="edgeStyle=orthogonalEdgeStyle;rounded=0;orthogonalLoop=1;jettySize=auto;html=1;exitX=0.5;exitY=1;exitDx=0;exitDy=0;entryX=0.5;entryY=0;entryDx=0;entryDy=0;endArrow=none;endFill=0;" parent="1" source="3sjhn8kAWHoQyI4SQKc3-106" target="3sjhn8kAWHoQyI4SQKc3-107" edge="1">
          <mxGeometry relative="1" as="geometry" />
        </mxCell>
        <mxCell id="3sjhn8kAWHoQyI4SQKc3-106" value="&lt;span style=&quot;font-size: 18px;&quot;&gt;5&lt;/span&gt;" style="ellipse;whiteSpace=wrap;html=1;aspect=fixed;fillColor=#dae8fc;strokeColor=#6c8ebf;" parent="1" vertex="1">
          <mxGeometry x="1440" y="710" width="50" height="50" as="geometry" />
        </mxCell>
        <mxCell id="3sjhn8kAWHoQyI4SQKc3-107" value="&lt;span style=&quot;font-size: 18px;&quot;&gt;8&lt;/span&gt;" style="ellipse;whiteSpace=wrap;html=1;aspect=fixed;fillColor=#fff2cc;strokeColor=#d6b656;" parent="1" vertex="1">
          <mxGeometry x="1440" y="820" width="50" height="50" as="geometry" />
        </mxCell>
        <mxCell id="3sjhn8kAWHoQyI4SQKc3-108" style="rounded=0;orthogonalLoop=1;jettySize=auto;html=1;exitX=1;exitY=1;exitDx=0;exitDy=0;entryX=0;entryY=0;entryDx=0;entryDy=0;endArrow=none;endFill=0;" parent="1" source="3sjhn8kAWHoQyI4SQKc3-109" target="3sjhn8kAWHoQyI4SQKc3-110" edge="1">
          <mxGeometry relative="1" as="geometry" />
        </mxCell>
        <mxCell id="3sjhn8kAWHoQyI4SQKc3-109" value="&lt;font style=&quot;font-size: 18px;&quot;&gt;3&lt;/font&gt;" style="ellipse;whiteSpace=wrap;html=1;aspect=fixed;fillColor=#f8cecc;strokeColor=#b85450;" parent="1" vertex="1">
          <mxGeometry x="1500" y="630" width="50" height="50" as="geometry" />
        </mxCell>
        <mxCell id="3sjhn8kAWHoQyI4SQKc3-110" value="&lt;span style=&quot;font-size: 18px;&quot;&gt;6&lt;/span&gt;" style="ellipse;whiteSpace=wrap;html=1;aspect=fixed;fillColor=#dae8fc;strokeColor=#6c8ebf;" parent="1" vertex="1">
          <mxGeometry x="1560" y="710" width="50" height="50" as="geometry" />
        </mxCell>
        <mxCell id="3sjhn8kAWHoQyI4SQKc3-127" value="&lt;font style=&quot;font-size: 20px;&quot;&gt;Original Data Graph&lt;/font&gt;" style="text;html=1;align=center;verticalAlign=middle;whiteSpace=wrap;rounded=0;" parent="1" vertex="1">
          <mxGeometry x="1757" y="530" width="200" height="30" as="geometry" />
        </mxCell>
        <mxCell id="3sjhn8kAWHoQyI4SQKc3-134" value="" style="shape=flexArrow;endArrow=classic;html=1;rounded=0;strokeColor=default;" parent="1" edge="1">
          <mxGeometry width="50" height="50" relative="1" as="geometry">
            <mxPoint x="1857" y="38" as="sourcePoint" />
            <mxPoint x="1857" y="178" as="targetPoint" />
          </mxGeometry>
        </mxCell>
        <mxCell id="3sjhn8kAWHoQyI4SQKc3-135" value="&lt;font style=&quot;font-size: 25px;&quot;&gt;delete_vertex(7)&lt;/font&gt;" style="text;html=1;align=center;verticalAlign=middle;whiteSpace=wrap;rounded=0;" parent="1" vertex="1">
          <mxGeometry x="1757" y="1" width="200" height="30" as="geometry" />
        </mxCell>
        <mxCell id="3sjhn8kAWHoQyI4SQKc3-146" style="rounded=0;orthogonalLoop=1;jettySize=auto;html=1;exitX=1;exitY=0.5;exitDx=0;exitDy=0;entryX=0;entryY=0;entryDx=0;entryDy=0;endArrow=none;endFill=0;" parent="1" source="3sjhn8kAWHoQyI4SQKc3-148" target="3sjhn8kAWHoQyI4SQKc3-160" edge="1">
          <mxGeometry relative="1" as="geometry" />
        </mxCell>
        <mxCell id="3sjhn8kAWHoQyI4SQKc3-147" style="rounded=0;orthogonalLoop=1;jettySize=auto;html=1;exitX=0;exitY=0;exitDx=0;exitDy=0;entryX=1;entryY=1;entryDx=0;entryDy=0;endArrow=none;endFill=0;" parent="1" source="3sjhn8kAWHoQyI4SQKc3-148" target="3sjhn8kAWHoQyI4SQKc3-162" edge="1">
          <mxGeometry relative="1" as="geometry" />
        </mxCell>
        <mxCell id="3sjhn8kAWHoQyI4SQKc3-148" value="&lt;span style=&quot;font-size: 18px;&quot;&gt;3&lt;/span&gt;" style="ellipse;whiteSpace=wrap;html=1;aspect=fixed;fillColor=#f8cecc;strokeColor=#b85450;" parent="1" vertex="1">
          <mxGeometry x="1201" y="261.5" width="50" height="50" as="geometry" />
        </mxCell>
        <mxCell id="3sjhn8kAWHoQyI4SQKc3-149" style="edgeStyle=orthogonalEdgeStyle;rounded=0;orthogonalLoop=1;jettySize=auto;html=1;exitX=1;exitY=0.5;exitDx=0;exitDy=0;entryX=0;entryY=0.5;entryDx=0;entryDy=0;endArrow=none;endFill=0;" parent="1" source="3sjhn8kAWHoQyI4SQKc3-151" target="3sjhn8kAWHoQyI4SQKc3-154" edge="1">
          <mxGeometry relative="1" as="geometry" />
        </mxCell>
        <mxCell id="3sjhn8kAWHoQyI4SQKc3-150" style="rounded=0;orthogonalLoop=1;jettySize=auto;html=1;exitX=1;exitY=0;exitDx=0;exitDy=0;entryX=0;entryY=1;entryDx=0;entryDy=0;endArrow=none;endFill=0;" parent="1" source="3sjhn8kAWHoQyI4SQKc3-151" target="3sjhn8kAWHoQyI4SQKc3-148" edge="1">
          <mxGeometry relative="1" as="geometry" />
        </mxCell>
        <mxCell id="3sjhn8kAWHoQyI4SQKc3-151" value="&lt;span style=&quot;font-size: 18px;&quot;&gt;4&lt;/span&gt;" style="ellipse;whiteSpace=wrap;html=1;aspect=fixed;fillColor=#dae8fc;strokeColor=#6c8ebf;" parent="1" vertex="1">
          <mxGeometry x="1141" y="341.5" width="50" height="50" as="geometry" />
        </mxCell>
        <mxCell id="3sjhn8kAWHoQyI4SQKc3-152" style="rounded=0;orthogonalLoop=1;jettySize=auto;html=1;exitX=0;exitY=0;exitDx=0;exitDy=0;entryX=1;entryY=1;entryDx=0;entryDy=0;endArrow=none;endFill=0;" parent="1" source="3sjhn8kAWHoQyI4SQKc3-154" target="3sjhn8kAWHoQyI4SQKc3-148" edge="1">
          <mxGeometry relative="1" as="geometry" />
        </mxCell>
        <mxCell id="3sjhn8kAWHoQyI4SQKc3-153" style="rounded=0;orthogonalLoop=1;jettySize=auto;html=1;exitX=1;exitY=0.5;exitDx=0;exitDy=0;entryX=0;entryY=1;entryDx=0;entryDy=0;endArrow=none;endFill=0;" parent="1" source="3sjhn8kAWHoQyI4SQKc3-154" target="3sjhn8kAWHoQyI4SQKc3-166" edge="1">
          <mxGeometry relative="1" as="geometry" />
        </mxCell>
        <mxCell id="3sjhn8kAWHoQyI4SQKc3-167" style="rounded=0;orthogonalLoop=1;jettySize=auto;html=1;exitX=1;exitY=0.5;exitDx=0;exitDy=0;entryX=0;entryY=0.5;entryDx=0;entryDy=0;endArrow=none;endFill=0;strokeWidth=5;strokeColor=#FF3333;" parent="1" source="3sjhn8kAWHoQyI4SQKc3-154" target="3sjhn8kAWHoQyI4SQKc3-160" edge="1">
          <mxGeometry relative="1" as="geometry" />
        </mxCell>
        <mxCell id="3sjhn8kAWHoQyI4SQKc3-154" value="&lt;span style=&quot;font-size: 18px;&quot;&gt;5&lt;/span&gt;" style="ellipse;whiteSpace=wrap;html=1;aspect=fixed;fillColor=#dae8fc;strokeColor=#6c8ebf;" parent="1" vertex="1">
          <mxGeometry x="1261" y="341.5" width="50" height="50" as="geometry" />
        </mxCell>
        <mxCell id="3sjhn8kAWHoQyI4SQKc3-155" style="edgeStyle=orthogonalEdgeStyle;rounded=0;orthogonalLoop=1;jettySize=auto;html=1;exitX=0.5;exitY=0;exitDx=0;exitDy=0;entryX=0.5;entryY=1;entryDx=0;entryDy=0;endArrow=none;endFill=0;" parent="1" source="3sjhn8kAWHoQyI4SQKc3-156" target="3sjhn8kAWHoQyI4SQKc3-151" edge="1">
          <mxGeometry relative="1" as="geometry" />
        </mxCell>
        <mxCell id="3sjhn8kAWHoQyI4SQKc3-156" value="&lt;span style=&quot;font-size: 18px;&quot;&gt;7&lt;/span&gt;" style="ellipse;whiteSpace=wrap;html=1;aspect=fixed;fillColor=#fff2cc;strokeColor=#d6b656;" parent="1" vertex="1">
          <mxGeometry x="1141" y="451.5" width="50" height="50" as="geometry" />
        </mxCell>
        <mxCell id="3sjhn8kAWHoQyI4SQKc3-157" style="rounded=0;orthogonalLoop=1;jettySize=auto;html=1;exitX=0;exitY=0;exitDx=0;exitDy=0;entryX=1;entryY=1;entryDx=0;entryDy=0;endArrow=none;endFill=0;" parent="1" source="3sjhn8kAWHoQyI4SQKc3-159" target="3sjhn8kAWHoQyI4SQKc3-160" edge="1">
          <mxGeometry relative="1" as="geometry" />
        </mxCell>
        <mxCell id="3sjhn8kAWHoQyI4SQKc3-158" style="rounded=0;orthogonalLoop=1;jettySize=auto;html=1;exitX=0.5;exitY=0;exitDx=0;exitDy=0;entryX=0.5;entryY=1;entryDx=0;entryDy=0;endArrow=none;endFill=0;" parent="1" source="3sjhn8kAWHoQyI4SQKc3-159" target="3sjhn8kAWHoQyI4SQKc3-166" edge="1">
          <mxGeometry relative="1" as="geometry" />
        </mxCell>
        <mxCell id="3sjhn8kAWHoQyI4SQKc3-159" value="&lt;span style=&quot;font-size: 18px;&quot;&gt;8&lt;/span&gt;" style="ellipse;whiteSpace=wrap;html=1;aspect=fixed;fillColor=#fff2cc;strokeColor=#d6b656;" parent="1" vertex="1">
          <mxGeometry x="1461" y="441.5" width="50" height="50" as="geometry" />
        </mxCell>
        <mxCell id="3sjhn8kAWHoQyI4SQKc3-160" value="&lt;span style=&quot;font-size: 18px;&quot;&gt;6&lt;/span&gt;" style="ellipse;whiteSpace=wrap;html=1;aspect=fixed;fillColor=#dae8fc;strokeColor=#6c8ebf;" parent="1" vertex="1">
          <mxGeometry x="1391" y="361.5" width="50" height="50" as="geometry" />
        </mxCell>
        <mxCell id="3sjhn8kAWHoQyI4SQKc3-161" style="rounded=0;orthogonalLoop=1;jettySize=auto;html=1;exitX=1;exitY=0.5;exitDx=0;exitDy=0;entryX=0;entryY=0.5;entryDx=0;entryDy=0;endArrow=none;endFill=0;" parent="1" source="3sjhn8kAWHoQyI4SQKc3-162" target="3sjhn8kAWHoQyI4SQKc3-165" edge="1">
          <mxGeometry relative="1" as="geometry" />
        </mxCell>
        <mxCell id="3sjhn8kAWHoQyI4SQKc3-162" value="&lt;font style=&quot;font-size: 18px;&quot;&gt;1&lt;/font&gt;" style="ellipse;whiteSpace=wrap;html=1;aspect=fixed;fillColor=#fff2cc;strokeColor=#d6b656;" parent="1" vertex="1">
          <mxGeometry x="1121" y="191.5" width="50" height="50" as="geometry" />
        </mxCell>
        <mxCell id="3sjhn8kAWHoQyI4SQKc3-163" style="rounded=0;orthogonalLoop=1;jettySize=auto;html=1;exitX=0;exitY=1;exitDx=0;exitDy=0;entryX=1;entryY=0;entryDx=0;entryDy=0;endArrow=none;endFill=0;" parent="1" source="3sjhn8kAWHoQyI4SQKc3-165" target="3sjhn8kAWHoQyI4SQKc3-154" edge="1">
          <mxGeometry relative="1" as="geometry" />
        </mxCell>
        <mxCell id="3sjhn8kAWHoQyI4SQKc3-164" style="rounded=0;orthogonalLoop=1;jettySize=auto;html=1;exitX=1;exitY=0.5;exitDx=0;exitDy=0;entryX=0;entryY=0.5;entryDx=0;entryDy=0;endArrow=none;endFill=0;" parent="1" source="3sjhn8kAWHoQyI4SQKc3-165" target="3sjhn8kAWHoQyI4SQKc3-166" edge="1">
          <mxGeometry relative="1" as="geometry" />
        </mxCell>
        <mxCell id="3sjhn8kAWHoQyI4SQKc3-165" value="&lt;font style=&quot;font-size: 18px;&quot;&gt;2&lt;/font&gt;" style="ellipse;whiteSpace=wrap;html=1;aspect=fixed;fillColor=#f8cecc;strokeColor=#b85450;" parent="1" vertex="1">
          <mxGeometry x="1321" y="221.5" width="50" height="50" as="geometry" />
        </mxCell>
        <mxCell id="3sjhn8kAWHoQyI4SQKc3-166" value="&lt;span style=&quot;font-size: 18px;&quot;&gt;9&lt;/span&gt;" style="ellipse;whiteSpace=wrap;html=1;aspect=fixed;fillColor=#dae8fc;strokeColor=#6c8ebf;" parent="1" vertex="1">
          <mxGeometry x="1481" y="261.5" width="50" height="50" as="geometry" />
        </mxCell>
        <mxCell id="3sjhn8kAWHoQyI4SQKc3-168" style="rounded=0;orthogonalLoop=1;jettySize=auto;html=1;exitX=1;exitY=0.5;exitDx=0;exitDy=0;entryX=0;entryY=0;entryDx=0;entryDy=0;endArrow=none;endFill=0;" parent="1" source="3sjhn8kAWHoQyI4SQKc3-170" target="3sjhn8kAWHoQyI4SQKc3-183" edge="1">
          <mxGeometry relative="1" as="geometry" />
        </mxCell>
        <mxCell id="3sjhn8kAWHoQyI4SQKc3-169" style="rounded=0;orthogonalLoop=1;jettySize=auto;html=1;exitX=0;exitY=0;exitDx=0;exitDy=0;entryX=1;entryY=1;entryDx=0;entryDy=0;endArrow=none;endFill=0;" parent="1" source="3sjhn8kAWHoQyI4SQKc3-170" target="3sjhn8kAWHoQyI4SQKc3-185" edge="1">
          <mxGeometry relative="1" as="geometry" />
        </mxCell>
        <mxCell id="3sjhn8kAWHoQyI4SQKc3-170" value="&lt;span style=&quot;font-size: 18px;&quot;&gt;3&lt;/span&gt;" style="ellipse;whiteSpace=wrap;html=1;aspect=fixed;fillColor=#f8cecc;strokeColor=#b85450;" parent="1" vertex="1">
          <mxGeometry x="1737" y="271" width="50" height="50" as="geometry" />
        </mxCell>
        <mxCell id="3sjhn8kAWHoQyI4SQKc3-171" style="edgeStyle=orthogonalEdgeStyle;rounded=0;orthogonalLoop=1;jettySize=auto;html=1;exitX=1;exitY=0.5;exitDx=0;exitDy=0;entryX=0;entryY=0.5;entryDx=0;entryDy=0;endArrow=none;endFill=0;" parent="1" source="3sjhn8kAWHoQyI4SQKc3-173" target="3sjhn8kAWHoQyI4SQKc3-177" edge="1">
          <mxGeometry relative="1" as="geometry" />
        </mxCell>
        <mxCell id="3sjhn8kAWHoQyI4SQKc3-172" style="rounded=0;orthogonalLoop=1;jettySize=auto;html=1;exitX=1;exitY=0;exitDx=0;exitDy=0;entryX=0;entryY=1;entryDx=0;entryDy=0;endArrow=none;endFill=0;" parent="1" source="3sjhn8kAWHoQyI4SQKc3-173" target="3sjhn8kAWHoQyI4SQKc3-170" edge="1">
          <mxGeometry relative="1" as="geometry" />
        </mxCell>
        <mxCell id="3sjhn8kAWHoQyI4SQKc3-173" value="&lt;span style=&quot;font-size: 18px;&quot;&gt;4&lt;/span&gt;" style="ellipse;whiteSpace=wrap;html=1;aspect=fixed;fillColor=#dae8fc;strokeColor=#6c8ebf;" parent="1" vertex="1">
          <mxGeometry x="1677" y="351" width="50" height="50" as="geometry" />
        </mxCell>
        <mxCell id="3sjhn8kAWHoQyI4SQKc3-174" style="rounded=0;orthogonalLoop=1;jettySize=auto;html=1;exitX=0;exitY=0;exitDx=0;exitDy=0;entryX=1;entryY=1;entryDx=0;entryDy=0;endArrow=none;endFill=0;" parent="1" source="3sjhn8kAWHoQyI4SQKc3-177" target="3sjhn8kAWHoQyI4SQKc3-170" edge="1">
          <mxGeometry relative="1" as="geometry" />
        </mxCell>
        <mxCell id="3sjhn8kAWHoQyI4SQKc3-175" style="rounded=0;orthogonalLoop=1;jettySize=auto;html=1;exitX=1;exitY=0.5;exitDx=0;exitDy=0;entryX=0;entryY=1;entryDx=0;entryDy=0;endArrow=none;endFill=0;" parent="1" source="3sjhn8kAWHoQyI4SQKc3-177" target="3sjhn8kAWHoQyI4SQKc3-189" edge="1">
          <mxGeometry relative="1" as="geometry" />
        </mxCell>
        <mxCell id="3sjhn8kAWHoQyI4SQKc3-176" style="rounded=0;orthogonalLoop=1;jettySize=auto;html=1;exitX=1;exitY=0.5;exitDx=0;exitDy=0;entryX=0;entryY=0.5;entryDx=0;entryDy=0;endArrow=none;endFill=0;strokeWidth=5;strokeColor=#FF3333;" parent="1" source="3sjhn8kAWHoQyI4SQKc3-177" target="3sjhn8kAWHoQyI4SQKc3-183" edge="1">
          <mxGeometry relative="1" as="geometry" />
        </mxCell>
        <mxCell id="3sjhn8kAWHoQyI4SQKc3-177" value="&lt;span style=&quot;font-size: 18px;&quot;&gt;5&lt;/span&gt;" style="ellipse;whiteSpace=wrap;html=1;aspect=fixed;fillColor=#dae8fc;strokeColor=#6c8ebf;" parent="1" vertex="1">
          <mxGeometry x="1797" y="351" width="50" height="50" as="geometry" />
        </mxCell>
        <mxCell id="3sjhn8kAWHoQyI4SQKc3-180" style="rounded=0;orthogonalLoop=1;jettySize=auto;html=1;exitX=0;exitY=0;exitDx=0;exitDy=0;entryX=1;entryY=1;entryDx=0;entryDy=0;endArrow=none;endFill=0;" parent="1" source="3sjhn8kAWHoQyI4SQKc3-182" target="3sjhn8kAWHoQyI4SQKc3-183" edge="1">
          <mxGeometry relative="1" as="geometry" />
        </mxCell>
        <mxCell id="3sjhn8kAWHoQyI4SQKc3-181" style="rounded=0;orthogonalLoop=1;jettySize=auto;html=1;exitX=0.5;exitY=0;exitDx=0;exitDy=0;entryX=0.5;entryY=1;entryDx=0;entryDy=0;endArrow=none;endFill=0;" parent="1" source="3sjhn8kAWHoQyI4SQKc3-182" target="3sjhn8kAWHoQyI4SQKc3-189" edge="1">
          <mxGeometry relative="1" as="geometry" />
        </mxCell>
        <mxCell id="3sjhn8kAWHoQyI4SQKc3-182" value="&lt;span style=&quot;font-size: 18px;&quot;&gt;8&lt;/span&gt;" style="ellipse;whiteSpace=wrap;html=1;aspect=fixed;fillColor=#fff2cc;strokeColor=#d6b656;" parent="1" vertex="1">
          <mxGeometry x="1997" y="451" width="50" height="50" as="geometry" />
        </mxCell>
        <mxCell id="3sjhn8kAWHoQyI4SQKc3-183" value="&lt;span style=&quot;font-size: 18px;&quot;&gt;6&lt;/span&gt;" style="ellipse;whiteSpace=wrap;html=1;aspect=fixed;fillColor=#dae8fc;strokeColor=#6c8ebf;" parent="1" vertex="1">
          <mxGeometry x="1927" y="371" width="50" height="50" as="geometry" />
        </mxCell>
        <mxCell id="3sjhn8kAWHoQyI4SQKc3-184" style="rounded=0;orthogonalLoop=1;jettySize=auto;html=1;exitX=1;exitY=0.5;exitDx=0;exitDy=0;entryX=0;entryY=0.5;entryDx=0;entryDy=0;endArrow=none;endFill=0;" parent="1" source="3sjhn8kAWHoQyI4SQKc3-185" target="3sjhn8kAWHoQyI4SQKc3-188" edge="1">
          <mxGeometry relative="1" as="geometry" />
        </mxCell>
        <mxCell id="3sjhn8kAWHoQyI4SQKc3-185" value="&lt;font style=&quot;font-size: 18px;&quot;&gt;1&lt;/font&gt;" style="ellipse;whiteSpace=wrap;html=1;aspect=fixed;fillColor=#fff2cc;strokeColor=#d6b656;" parent="1" vertex="1">
          <mxGeometry x="1657" y="201" width="50" height="50" as="geometry" />
        </mxCell>
        <mxCell id="3sjhn8kAWHoQyI4SQKc3-186" style="rounded=0;orthogonalLoop=1;jettySize=auto;html=1;exitX=0;exitY=1;exitDx=0;exitDy=0;entryX=1;entryY=0;entryDx=0;entryDy=0;endArrow=none;endFill=0;" parent="1" source="3sjhn8kAWHoQyI4SQKc3-188" target="3sjhn8kAWHoQyI4SQKc3-177" edge="1">
          <mxGeometry relative="1" as="geometry" />
        </mxCell>
        <mxCell id="3sjhn8kAWHoQyI4SQKc3-187" style="rounded=0;orthogonalLoop=1;jettySize=auto;html=1;exitX=1;exitY=0.5;exitDx=0;exitDy=0;entryX=0;entryY=0.5;entryDx=0;entryDy=0;endArrow=none;endFill=0;" parent="1" source="3sjhn8kAWHoQyI4SQKc3-188" target="3sjhn8kAWHoQyI4SQKc3-189" edge="1">
          <mxGeometry relative="1" as="geometry" />
        </mxCell>
        <mxCell id="3sjhn8kAWHoQyI4SQKc3-188" value="&lt;font style=&quot;font-size: 18px;&quot;&gt;2&lt;/font&gt;" style="ellipse;whiteSpace=wrap;html=1;aspect=fixed;fillColor=#f8cecc;strokeColor=#b85450;" parent="1" vertex="1">
          <mxGeometry x="1857" y="231" width="50" height="50" as="geometry" />
        </mxCell>
        <mxCell id="3sjhn8kAWHoQyI4SQKc3-189" value="&lt;span style=&quot;font-size: 18px;&quot;&gt;9&lt;/span&gt;" style="ellipse;whiteSpace=wrap;html=1;aspect=fixed;fillColor=#dae8fc;strokeColor=#6c8ebf;" parent="1" vertex="1">
          <mxGeometry x="2017" y="271" width="50" height="50" as="geometry" />
        </mxCell>
        <mxCell id="3sjhn8kAWHoQyI4SQKc3-190" value="&lt;font style=&quot;font-size: 20px;&quot;&gt;Result&lt;/font&gt;" style="text;html=1;align=center;verticalAlign=middle;whiteSpace=wrap;rounded=0;" parent="1" vertex="1">
          <mxGeometry x="1654" y="707" width="146" height="30" as="geometry" />
        </mxCell>
        <mxCell id="3sjhn8kAWHoQyI4SQKc3-199" style="edgeStyle=orthogonalEdgeStyle;rounded=0;orthogonalLoop=1;jettySize=auto;html=1;exitX=1;exitY=0.5;exitDx=0;exitDy=0;entryX=0;entryY=0.5;entryDx=0;entryDy=0;endArrow=none;endFill=0;" parent="1" source="3sjhn8kAWHoQyI4SQKc3-202" target="3sjhn8kAWHoQyI4SQKc3-206" edge="1">
          <mxGeometry relative="1" as="geometry" />
        </mxCell>
        <mxCell id="3sjhn8kAWHoQyI4SQKc3-200" style="rounded=0;orthogonalLoop=1;jettySize=auto;html=1;exitX=1;exitY=0;exitDx=0;exitDy=0;entryX=0;entryY=1;entryDx=0;entryDy=0;endArrow=none;endFill=0;" parent="1" source="3sjhn8kAWHoQyI4SQKc3-202" target="3sjhn8kAWHoQyI4SQKc3-205" edge="1">
          <mxGeometry relative="1" as="geometry" />
        </mxCell>
        <mxCell id="3sjhn8kAWHoQyI4SQKc3-201" style="edgeStyle=orthogonalEdgeStyle;rounded=0;orthogonalLoop=1;jettySize=auto;html=1;exitX=0.5;exitY=1;exitDx=0;exitDy=0;entryX=0.5;entryY=0;entryDx=0;entryDy=0;endArrow=none;endFill=0;" parent="1" source="3sjhn8kAWHoQyI4SQKc3-202" target="3sjhn8kAWHoQyI4SQKc3-203" edge="1">
          <mxGeometry relative="1" as="geometry" />
        </mxCell>
        <mxCell id="3sjhn8kAWHoQyI4SQKc3-202" value="&lt;span style=&quot;font-size: 18px;&quot;&gt;9&lt;/span&gt;" style="ellipse;whiteSpace=wrap;html=1;aspect=fixed;fillColor=#dae8fc;strokeColor=#6c8ebf;" parent="1" vertex="1">
          <mxGeometry x="1800" y="710" width="50" height="50" as="geometry" />
        </mxCell>
        <mxCell id="3sjhn8kAWHoQyI4SQKc3-203" value="&lt;span style=&quot;font-size: 18px;&quot;&gt;8&lt;/span&gt;" style="ellipse;whiteSpace=wrap;html=1;aspect=fixed;fillColor=#fff2cc;strokeColor=#d6b656;" parent="1" vertex="1">
          <mxGeometry x="1800" y="820" width="50" height="50" as="geometry" />
        </mxCell>
        <mxCell id="3sjhn8kAWHoQyI4SQKc3-204" style="rounded=0;orthogonalLoop=1;jettySize=auto;html=1;exitX=1;exitY=1;exitDx=0;exitDy=0;entryX=0;entryY=0;entryDx=0;entryDy=0;endArrow=none;endFill=0;" parent="1" source="3sjhn8kAWHoQyI4SQKc3-205" target="3sjhn8kAWHoQyI4SQKc3-206" edge="1">
          <mxGeometry relative="1" as="geometry" />
        </mxCell>
        <mxCell id="3sjhn8kAWHoQyI4SQKc3-205" value="&lt;font style=&quot;font-size: 18px;&quot;&gt;2&lt;/font&gt;" style="ellipse;whiteSpace=wrap;html=1;aspect=fixed;fillColor=#f8cecc;strokeColor=#b85450;" parent="1" vertex="1">
          <mxGeometry x="1860" y="630" width="50" height="50" as="geometry" />
        </mxCell>
        <mxCell id="3sjhn8kAWHoQyI4SQKc3-206" value="&lt;span style=&quot;font-size: 18px;&quot;&gt;5&lt;/span&gt;" style="ellipse;whiteSpace=wrap;html=1;aspect=fixed;fillColor=#dae8fc;strokeColor=#6c8ebf;" parent="1" vertex="1">
          <mxGeometry x="1920" y="710" width="50" height="50" as="geometry" />
        </mxCell>
        <mxCell id="3sjhn8kAWHoQyI4SQKc3-207" value="&lt;font style=&quot;font-size: 20px;&quot;&gt;Count:&lt;/font&gt;" style="text;html=1;align=center;verticalAlign=middle;whiteSpace=wrap;rounded=0;" parent="1" vertex="1">
          <mxGeometry x="1694" y="940" width="60" height="30" as="geometry" />
        </mxCell>
        <mxCell id="3sjhn8kAWHoQyI4SQKc3-208" value="&lt;div style=&quot;text-align: center;&quot;&gt;&lt;span style=&quot;background-color: initial; font-size: 20px;&quot;&gt;2&lt;/span&gt;&lt;/div&gt;" style="text;whiteSpace=wrap;html=1;" parent="1" vertex="1">
          <mxGeometry x="1764" y="937" width="50" height="30" as="geometry" />
        </mxCell>
        <mxCell id="3sjhn8kAWHoQyI4SQKc3-209" style="edgeStyle=orthogonalEdgeStyle;rounded=0;orthogonalLoop=1;jettySize=auto;html=1;exitX=1;exitY=0.5;exitDx=0;exitDy=0;entryX=0;entryY=0.5;entryDx=0;entryDy=0;endArrow=none;endFill=0;" parent="1" source="3sjhn8kAWHoQyI4SQKc3-212" target="3sjhn8kAWHoQyI4SQKc3-216" edge="1">
          <mxGeometry relative="1" as="geometry" />
        </mxCell>
        <mxCell id="3sjhn8kAWHoQyI4SQKc3-210" style="rounded=0;orthogonalLoop=1;jettySize=auto;html=1;exitX=1;exitY=0;exitDx=0;exitDy=0;entryX=0;entryY=1;entryDx=0;entryDy=0;endArrow=none;endFill=0;" parent="1" source="3sjhn8kAWHoQyI4SQKc3-212" target="3sjhn8kAWHoQyI4SQKc3-215" edge="1">
          <mxGeometry relative="1" as="geometry" />
        </mxCell>
        <mxCell id="3sjhn8kAWHoQyI4SQKc3-211" style="edgeStyle=orthogonalEdgeStyle;rounded=0;orthogonalLoop=1;jettySize=auto;html=1;exitX=0.5;exitY=1;exitDx=0;exitDy=0;entryX=0.5;entryY=0;entryDx=0;entryDy=0;endArrow=none;endFill=0;" parent="1" source="3sjhn8kAWHoQyI4SQKc3-212" target="3sjhn8kAWHoQyI4SQKc3-213" edge="1">
          <mxGeometry relative="1" as="geometry" />
        </mxCell>
        <mxCell id="3sjhn8kAWHoQyI4SQKc3-212" value="&lt;span style=&quot;font-size: 18px;&quot;&gt;5&lt;/span&gt;" style="ellipse;whiteSpace=wrap;html=1;aspect=fixed;fillColor=#dae8fc;strokeColor=#6c8ebf;" parent="1" vertex="1">
          <mxGeometry x="1999" y="710" width="50" height="50" as="geometry" />
        </mxCell>
        <mxCell id="3sjhn8kAWHoQyI4SQKc3-213" value="&lt;span style=&quot;font-size: 18px;&quot;&gt;8&lt;/span&gt;" style="ellipse;whiteSpace=wrap;html=1;aspect=fixed;fillColor=#fff2cc;strokeColor=#d6b656;" parent="1" vertex="1">
          <mxGeometry x="1999" y="820" width="50" height="50" as="geometry" />
        </mxCell>
        <mxCell id="3sjhn8kAWHoQyI4SQKc3-214" style="rounded=0;orthogonalLoop=1;jettySize=auto;html=1;exitX=1;exitY=1;exitDx=0;exitDy=0;entryX=0;entryY=0;entryDx=0;entryDy=0;endArrow=none;endFill=0;" parent="1" source="3sjhn8kAWHoQyI4SQKc3-215" target="3sjhn8kAWHoQyI4SQKc3-216" edge="1">
          <mxGeometry relative="1" as="geometry" />
        </mxCell>
        <mxCell id="3sjhn8kAWHoQyI4SQKc3-215" value="&lt;font style=&quot;font-size: 18px;&quot;&gt;3&lt;/font&gt;" style="ellipse;whiteSpace=wrap;html=1;aspect=fixed;fillColor=#f8cecc;strokeColor=#b85450;" parent="1" vertex="1">
          <mxGeometry x="2059" y="630" width="50" height="50" as="geometry" />
        </mxCell>
        <mxCell id="3sjhn8kAWHoQyI4SQKc3-216" value="&lt;span style=&quot;font-size: 18px;&quot;&gt;6&lt;/span&gt;" style="ellipse;whiteSpace=wrap;html=1;aspect=fixed;fillColor=#dae8fc;strokeColor=#6c8ebf;" parent="1" vertex="1">
          <mxGeometry x="2119" y="710" width="50" height="50" as="geometry" />
        </mxCell>
      </root>
    </mxGraphModel>
  </diagram>
</mxfile>
